<?xml version="1.0" encoding="UTF-8"?>
<svg xmlns="http://www.w3.org/2000/svg" version="1.1" viewBox="0 0 800 800">
  <defs>
    <style>
      .cls-1 {
        fill: #98ad6a;
      }

      .cls-2 {
        fill: #662113;
      }

      .cls-3 {
        fill: #3d6300;
      }
    </style>
  </defs>
  <!-- Generator: Adobe Illustrator 28.7.1, SVG Export Plug-In . SVG Version: 1.2.0 Build 142)  -->
  <g>
    <g id="Layer_1">
      <path class="cls-2" d="M343.9,467.5c-15.2-10.3-.8-18.6,9.5-33.8L609.8,16.8c10.4-15.2,31.1-19.1,46.3-8.8,15.2,10.3,19.2,31.1,8.8,46.3l-293,391.9c-10.3,15.2-12.8,31.6-27.9,21.3h0ZM380,466.6c-12.3-13.6,3.6-18.3,17.2-30.6L744.3,91c13.7-12.3,34.7-11.3,47.1,2.3,12.3,13.7,11.3,34.7-2.3,47.1l-377,312c-13.6,12.3-19.8,27.8-32.1,14.2h0Z"/>
      <path class="cls-3" d="M355.6,711.1h400c24.4,0,44.4,20,44.4,44.4s-20,44.4-44.4,44.4h-400c-24.4,0-44.4-20-44.4-44.4s20-44.4,44.4-44.4Z"/>
      <circle class="cls-3" cx="355.6" cy="444.4" r="355.6"/>
      <path class="cls-1" d="M218.6,659.8c-62.5,0-103.6-7.5-106.6-8.1-12-2.5-19.8-14.2-17.3-26.3,2.4-11.7,13.7-19.4,25.5-17.4,1.3.3,130.2,23.6,279.6-15.6,149.2-39.1,236.7-121.7,237.6-122.5,8.9-8.5,22.9-8.2,31.4.7s8.2,22.9-.7,31.4c-3.9,3.7-96.8,91.4-257,133.4-72.7,19-140.1,24.3-192.4,24.3h0Z"/>
      <path class="cls-1" d="M180.8,582.4c-76.3,0-132.1-8.4-136.2-9.1-12.1-1.9-20.4-13.2-18.6-25.4,1.9-12.1,13.2-20.4,25.4-18.6h0c1.7.3,171,25.7,321-13.6,149.4-39.2,274.4-153.2,275.6-154.4,9.1-8.3,23.1-7.6,31.4,1.5,8.2,9,7.6,22.9-1.3,31.2-5.4,5-134.5,122.7-294.5,164.7-70.1,18.4-142.8,23.6-202.9,23.6h0Z"/>
      <path class="cls-1" d="M159.9,493.8c-69,0-117.1-7.7-120.6-8.3-12.1-2-20.3-13.4-18.3-25.5,1.9-12,13.1-20.2,25.1-18.4.1,0,.3,0,.4,0,1.5.2,152.5,24.3,302.3-15,149.2-39.1,259.2-143.2,260.3-144.2,8.9-8.5,22.9-8.2,31.4.7s8.2,22.9-.7,31.4h0c-4.8,4.6-119.5,113.1-279.7,155.1-72,18.8-143.2,24.1-200.2,24.1h0Z"/>
      <path class="cls-1" d="M165.4,412.6c-10.8,0-20.1-7.8-21.9-18.5-26.3-156.2,32.3-230.8,34.8-233.9,7.7-9.6,21.7-11.1,31.2-3.4s11.1,21.7,3.4,31.2c-1,1.2-48.2,64.6-25.6,198.7,2,12.1-6.2,23.6-18.3,25.6-1.2.2-2.4.3-3.7.3h0ZM259.4,407.2c-11.3,0-20.8-8.5-22-19.7-20.7-182.3,34-259.4,36.4-262.6,7.3-9.8,21.2-11.9,31.1-4.6,9.7,7.2,11.9,20.8,4.9,30.7-.9,1.3-46.6,69.4-28.2,231.5,1.4,12.2-7.4,23.2-19.5,24.6-.9,0-1.7.1-2.6.1ZM356.9,382.4c-11.2,0-20.6-8.4-22-19.5-18.7-150.5,24.3-232.1,26.1-235.5,5.9-10.8,19.4-14.7,30.2-8.8,10.7,5.8,14.7,19.2,9,29.9-.8,1.5-37.9,74.6-21.2,209,1.5,12.2-7.2,23.3-19.3,24.8-.9.1-1.8.2-2.7.2ZM460.2,333.7c-11,0-20.3-8-21.9-18.9-16.9-110.9,5.2-164.1,6.2-166.3,4.8-11.3,17.8-16.5,29.1-11.7s16.5,17.8,11.7,29.1h0c-.5,1.2-17.8,46.5-3.2,142.2,1.9,12.1-6.5,23.5-18.6,25.3-1.1.2-2.2.3-3.3.3ZM291.6,766.7c-2.9,0-5.7-.5-8.3-1.6-27.4-11.1-52.6-36-55.4-38.8-8.5-8.9-8.2-22.9.6-31.4,8.6-8.3,22.3-8.2,30.9.1,5.8,5.9,24.5,22.5,40.6,29,11.4,4.7,16.7,17.7,12.1,29.1-3.4,8.3-11.5,13.7-20.4,13.7h0ZM418.3,770.1c-4,0-8-1.1-11.4-3.2-30.3-18.2-68.2-55.4-69.8-57-8.8-8.6-8.9-22.7-.2-31.4,8.6-8.8,22.7-8.9,31.4-.2.4.4,35.7,35,61.5,50.5,10.5,6.3,14,20,7.7,30.5-4,6.7-11.3,10.8-19.1,10.8h0ZM514.6,732.8c-3.7,0-7.3-.9-10.5-2.7-25.4-13.7-52.6-42.9-55.6-46.2-8.3-9-7.7-23,1.3-31.3,0,0,0,0,0,0,9.1-8.3,23.1-7.7,31.4,1.3,6.8,7.4,28,28.5,44,37.1,10.8,5.8,14.9,19.2,9.2,30-3.9,7.3-11.5,11.8-19.7,11.8ZM591.1,670.7c-3.5,0-7-.8-10.1-2.4-13.4-6.9-28.6-18.7-30.3-20-9.4-7.9-10.7-21.9-2.8-31.3,7.5-9,20.8-10.6,30.3-3.6,3.7,2.9,15,11.2,23.1,15.4,10.9,5.6,15.2,19,9.6,29.9-3.8,7.4-11.4,12.1-19.8,12.1ZM71.3,416.4c-11.1,0-20.5-8.2-22-19.2-7.9-58.5,7.6-114,20-137,6.3-10.6,19.9-14.1,30.5-7.8,10,5.9,13.8,18.5,8.7,28.9-7.8,14.5-21.8,60.5-15.1,110,1.7,12.2-6.9,23.4-19,25-1,.1-2,.2-3,.2h0ZM552,292.9c-10.7,0-19.8-7.6-21.8-18.1-6.2-32.7-2.5-70,4.4-89.9,3.8-11.7,16.3-18.1,28-14.4,11.7,3.8,18.1,16.3,14.4,28,0,.3-.2.6-.3.8-4.2,12-7.7,40.9-2.7,67.2,2.3,12.1-5.6,23.7-17.7,26-1.4.3-2.8.4-4.2.4h0Z"/>
    </g>
  </g>
</svg>