<?xml version="1.0" encoding="UTF-8"?>
<svg xmlns="http://www.w3.org/2000/svg" version="1.1" viewBox="0 0 800 800">
  <!-- Generator: Adobe Illustrator 28.7.1, SVG Export Plug-In . SVG Version: 1.2.0 Build 142)  -->
  <g>
    <g id="Capa_1">
      <g id="SVGRepo_iconCarrier">
        <path d="M644.7,567.6c38.1,8.9,78.3,3.8,110.2-14l12.7-7.1-16.9-.8c-109.2-5.3-175.5-33.8-212.5-57.6v-16.6c35.7,26.7,106.9,61.3,237.5,63.3h4.2c0,0,2.1-2.3,2.1-2.3,5.4-5.9,9.7-12.2,12.7-18.7l2.6-5.6-9.3-.2c-133.6-2.3-209.4-37.9-250-68.3v-18.3c30.4,27.8,103.1,73.2,254.5,74.9h7.3c0,0,0-26.8,0-26.8l-6.8-.2c-148.2-4.3-222.8-50.7-255-79.4v-21.8l1,1.2c20.5,24.9,86.2,83.3,253.3,88.3l7.5.2v-35.1l-7.6.3c-27.3,1.1-52.8,3.7-75.6,7.5-11-1.8-21.4-3.8-31.2-6.1,33-7.5,69.1-12,107.7-13.4l6.7-.3v-28.6l-7.4.2c-58.8,1.4-110.9,9.8-154.9,24.9-5.4-2.4-10.6-4.9-15.7-7.7,48.3-17.8,105.8-27.5,171.1-29l6.9-.2v-26.7h-7.2c-79.8.5-146.8,12.9-199.5,37.1-4-3-7.6-6.1-11-9.2,55.9-25.8,126.7-39.1,210.6-39.5h7.1v-26.7h-7c-135.8-1.8-212.4,31-252.8,58.7l-2.1,1.4v-16.3c42.8-26.3,120.4-56.5,250.6-55.6h9.5c0,0-2.4-5.7-2.4-5.7-2.9-6.8-7.2-13.4-12.7-19.6l-2.1-2.3h-4.2c-123.5,0-196.7,28.5-238.6,55.9v-15.8c54.5-31.4,126.1-48.9,212.8-51.7l17.4-.6-13-7.3c-32-18-72.4-23.2-110.7-14.2-64.6,15.1-101.7,40.9-115,51.6-11.2-12.8-32.6-21.6-57.4-21.6h-148.2c-23.8,0-44.4,8-55.9,19.9-14.9-11.5-51.5-35.6-112.8-49.9-38.3-9-78.7-3.8-110.7,14.2l-13,7.3,17.4.6c84.9,2.8,155.1,19.6,209.2,49.8v15.4c-42.4-26.7-115-53.6-235-53.6h-4.2l-2.1,2.3c-5.6,6.2-9.9,12.8-12.7,19.6l-2.5,5.8h9.5c126.6-.9,203.4,27.6,247,53.4v16c-40.7-27.6-117.1-59.5-251.2-57.8H0v26.7h7.1c83.9.5,154.7,13.8,210.6,39.6-3.4,3.1-7,6.2-11,9.2-52.6-24.2-119.7-36.6-199.5-37.1H0S0,370.5,0,370.5l6.9.2c65.3,1.5,122.8,11.2,171.1,29-5.1,2.7-10.3,5.3-15.7,7.7-43.9-15.1-96-23.4-154.9-24.9L0,382.7v28.2l6.7.3c38.6,1.5,74.7,6,107.7,13.4-9.8,2.3-20.2,4.3-31.2,6.1-22.8-3.9-48.2-6.4-75.5-7.5l-7.6-.3v35.1l7.5-.2c161-4.8,227.7-59.1,250.7-85.3v20.8c-34,28.8-108.5,72.1-251.4,76.2l-6.8.2v26.9h7.3c146-1.7,218.6-43.9,250.9-71.8v17.9c-41.4,29.7-116.6,63.4-246.4,65.6l-9.3.2,2.6,5.6c3.1,6.6,7.3,12.9,12.7,18.7l2.1,2.3h4.3c126.5-1.9,197.2-34.4,234-60.7v16.3c-37.7,23.2-103.2,50.1-208.9,55.3l-16.9.8,12.7,7.1c31.9,17.7,72.1,22.8,110.2,14,61.3-14.3,97.9-38.4,112.8-49.9,11.6,11.9,32.2,19.9,56,19.9h148.2c24.8,0,46.2-8.8,57.4-21.6,13.3,10.7,50.4,36.6,114.9,51.7Z"/>
      </g>
    </g>
  </g>
</svg>